<svg xmlns="http://www.w3.org/2000/svg" version="1.0" viewBox="0 0 1270.000000 1080.000000">
<g transform="translate(300.000000,1880.000000) scale(0.080000,-0.080000)" fill="#4a6cf7" stroke="none">
<path d="M5328 21131c-142 -61 -177 -147 -183 -439l-5 -262 -275 -10c-416 -15 -465 -65 -465 -478v-242h-242c-417 0 -478 -61 -478 -475v-265h-265c-415 0 -474 -61 -475 -490v-240l-229 6c-357 10 -491 -74 -491 -306 0 -266 111 -314 695 -306 600 8 651 48 644 501l-4 225 268 10c412 15 457 60 457 463v254h267c410 11 484 92 470 516l-8 221h258c427 0 493 64 493 482v248h255c204 0 268 7 318 35 203 111 195 435 -13 540 -92 46 -890 51 -992 6z" fill="#4a6cf7"/>
<path d="M2150 17168 c-225 -57 -330 -172 -330 -359 0 -169 81 -256 327 -350 243 -93 311 -180 212 -270 -56 -51 -299 -52 -393 -3 -90 48 -92 46 -133 -68 -42 -119 -39 -124 106 -166 694 -204 1062 453 396 708 -194 75 -235 107 -235 182 0 98 193 135 353 68 91 -38 82 -41 114 37 62 147 62 146 -39 181 -100 34 -312 56 -378 40z"/>
<path d="M3279 17154 c-292 -83 -439 -288 -439 -613 0 -487 363 -735 861 -589 144 42 154 82 66 264 -1 3 -49 -9 -105 -27 -316 -104 -542 41 -542 345 0 363 189 471 596 344 22 -7 104 155 104 205 0 59 -398 111 -541 71z"/>
<path d="M915 17020 c-110 -244 -415 -1027 -415 -1068 0 -6 62 -12 138 -12 l139 0 43 130 43 130 237 0 237 0 43 -130 43 -130 148 0 148 0 -21 55 c-12 30 -65 174 -119 320 -109 296 -313 786 -339 812 -9 10 -73 19 -141 20 l-125 3 -59 -130z m274 -374 c93 -252 102 -230 -94 -229 -91 0 -163 8 -161 17 32 115 159 440 168 430 6 -8 46 -106 87 -218z"/>
<path d="M4299 16990 c-77 -167 -229 -547 -346 -865 l-67 -185 143 0 143 0 40 125 40 125 240 6 240 5 40 -125 40 -126 151 -6 152 -6 -126 336 c-114 307 -300 757 -345 838 -13 24 -50 33 -145 35 l-126 3 -74 -160z m277 -316 c107 -289 115 -264 -85 -264 -105 0 -170 8 -167 20 24 84 168 445 175 438 5 -6 40 -93 77 -194z"/>
<path d="M5345 17147 l-85 -9 0 -590 c0 -690 -38 -616 320 -617 499 -2 740 200 740 619 0 463 -328 664 -975 597z m525 -269 c121 -56 160 -135 160 -328 0 -262 -96 -367 -352 -385 l-138 -10 0 381 c0 286 6 383 25 391 45 18 223 -10 305 -49z"/>
<path d="M6548 17142 c-4 -5 -8 -277 -8 -605 l0 -597 140 0 140 0 0 605 0 606 -132 -1 c-72 0 -135 -4 -140 -8z"/>
<path d="M7406 17040 c-123 -274 -426 -1051 -426 -1093 0 -5 64 -6 142 -3 l143 6 38 126 39 125 242 -5 242 -6 39 -125 38 -125 151 0 c135 0 149 4 136 35 -7 19 -67 176 -132 347 -131 348 -311 779 -337 805 -10 10 -73 19 -142 20 l-124 3 -49 -110z m263 -385 c41 -113 72 -212 68 -222 -10 -22 -328 -24 -322 -1 19 72 157 428 167 428 6 0 45 -92 87 -205z"/>
<path d="M723 15648 c-275 -137 -307 -611 -52 -768 113 -71 409 -79 496 -14 45 33 3 183 -46 162 -240 -100 -403 -22 -417 200 -17 263 144 370 399 263 36 -15 92 109 68 148 -46 73 -309 78 -448 9z"/>
<path d="M1529 15663 c-413 -194 -274 -845 180 -843 541 3 565 836 25 873 -94 7 -144 -1 -205 -30z m260 -151 c88 -37 131 -122 131 -258 0 -203 -138 -317 -302 -249 -197 83 -174 471 32 521 65 16 68 15 139 -14z"/>
<path d="M3330 15672 c-265 -118 -202 -390 113 -490 139 -45 180 -166 64 -194 -62 -16 -228 5 -255 32 -38 38 -92 -40 -92 -131 0 -32 152 -69 284 -69 391 2 453 370 87 517 -76 31 -148 71 -160 89 -55 89 98 144 237 86 l71 -30 24 79 c27 92 25 97 -76 120 -109 26 -227 22 -297 -9z"/>
<path d="M7730 15663 c-170 -77 -264 -255 -244 -455 32 -308 250 -439 621 -372 l77 14 3 215 3 215 -95 0 -95 0 0 -150 0 -150 -71 0 c-154 0 -249 106 -249 278 0 239 173 335 423 233 40 -17 95 119 62 152 -61 61 -319 72 -435 20z"/>
<path d="M2280 15260 l0 -420 103 0 103 0 -12 270 c-7 149 -6 270 2 270 18 -1 207 -265 298 -419 70 -117 75 -121 155 -121 l83 0 0 420 -1 420 -95 0 -96 0 0 -255 0 -255 -95 141 c-210 313 -265 369 -360 369 l-85 0 0 -420z"/>
<path d="M3900 15376 c0 -453 83 -574 381 -552 255 18 307 105 316 527 l7 329 -102 0 -102 0 0 -301 c0 -381 -77 -492 -247 -358 l-53 42 0 308 0 309 -100 0 -100 0 0 -304z"/>
<path d="M4780 15260 l0 -420 280 0 280 0 0 80 0 80 -191 0 -192 0 7 340 6 340 -95 0 -95 0 0 -420z"/>
<path d="M5380 15600 l0 -80 130 0 130 0 0 -340 0 -340 100 0 100 0 0 340 0 340 130 0 130 0 0 80 0 80 -360 0 -360 0 0 -80z"/>
<path d="M6210 15260 l0 -420 95 0 95 0 0 420 0 420 -95 0 -95 0 0 -420z"/>
<path d="M6600 15260 l0 -420 89 0 90 0 5 275 6 275 100 -136 c55 -75 137 -196 182 -270 78 -127 86 -134 165 -140 l83 -6 0 421 0 421 -95 0 -95 0 7 -185 c3 -102 3 -216 0 -255 l-7 -70 -70 110 c-176 276 -294 400 -380 400 l-80 0 0 -420z"/>
</g>
</svg>